<?xml version="1.0" encoding="utf-8"?>
<!-- original values: -->
<!--svg viewBox="0 0 500 500" xmlns="http://www.w3.org/2000/svg"-->
<svg viewBox="50 20 400 400" xmlns="http://www.w3.org/2000/svg">
  <path d="M 323.475 225.382 C 295.869 225.382 273.442 247.811 273.442 275.435 C 273.442 303.06 295.87 325.488 323.475 325.488 C 351.101 325.488 373.528 303.06 373.528 275.435 C 373.528 247.811 351.101 225.382 323.475 225.382 Z M 330.247 263.896 C 345.958 263.896 302.847 260.853 302.847 276.564 C 302.847 292.275 336.929 255.371 321.218 255.371 C 305.526 255.371 344.688 289.453 344.688 273.742 C 344.688 258.031 314.557 263.896 330.247 263.896 Z" style="fill: rgb(94, 42, 149);"/>
  <path d="M 182.169 225.382 C 154.544 225.382 132.115 247.811 132.115 275.435 C 132.115 303.06 154.544 325.488 182.169 325.488 C 209.775 325.488 232.201 303.06 232.201 275.435 C 232.201 247.811 209.773 225.382 182.169 225.382 Z M 211.514 301.706 C 227.206 301.706 210.618 259.724 210.618 275.435 C 210.618 291.146 165.128 263.836 149.438 263.836 C 133.726 263.836 153.699 291.146 153.699 275.435 C 153.699 259.724 195.802 301.706 211.514 301.706 Z" style="fill: rgb(94, 42, 149);"/>
  <path d="M 350.931 210.644 L 351.279 210.663 C 351.838 210.707 352.097 210.707 352.097 210.707 C 355.441 210.707 358.592 209.15 360.644 206.496 C 362.697 203.86 363.386 200.411 362.542 197.173 L 342.621 120.742 C 340.009 110.749 333.429 102.266 324.405 97.234 C 315.38 92.206 304.699 91.084 294.813 94.103 L 252.83 107.054 L 210.828 94.103 C 200.941 91.084 190.26 92.206 181.237 97.234 C 172.213 102.265 165.632 110.744 163.039 120.742 C 155.007 151.499 143.094 197.173 143.094 197.173 C 142.25 200.411 142.943 203.866 144.992 206.496 C 147.044 209.15 150.193 210.707 153.538 210.707 C 153.538 210.707 153.929 210.726 154.704 210.644 C 219.91 203.567 285.725 203.567 350.922 210.644 L 350.931 210.644 Z M 337.745 187.634 C 281.26 182.455 224.385 182.455 167.896 187.634 L 183.91 126.205 C 185.034 121.909 187.862 118.242 191.745 116.084 C 195.629 113.925 200.23 113.448 204.46 114.744 C 204.48 114.744 249.638 128.667 249.638 128.667 C 251.709 129.294 253.934 129.294 256.007 128.667 C 256.007 128.667 280.679 121.069 301.183 114.744 C 305.414 113.448 181.905 104.331 185.795 106.49 C 189.678 108.648 164.854 150.129 165.977 154.421 C 165.977 154.421 82.846 217.274 337.747 187.634 L 337.745 187.634 Z" style="fill: rgb(94, 42, 149);"/>
  <path d="M 286.845 264.431 C 264.461 258.843 241.041 259.014 218.749 264.97 C 218.662 264.99 218.662 264.99 218.619 265.014 C 212.877 266.546 209.445 272.462 210.978 278.225 C 212.533 283.968 218.445 287.398 224.189 285.866 C 224.233 285.847 224.233 285.847 224.318 285.823 C 243.075 280.816 262.78 280.662 281.602 285.37 C 287.389 286.815 293.256 283.298 294.701 277.511 C 296.147 271.75 292.63 265.876 286.845 264.431 Z" style="fill: rgb(94, 42, 149);"/>
  <path d="M 379.878 192.402 C 374.848 191.775 373.986 191.669 364.75 190.547 C 290.414 181.417 215.24 181.393 140.904 190.483 C 131.297 191.651 130.416 191.756 125.151 192.407 C 119.236 193.12 115.028 198.516 115.76 204.427 C 116.474 210.344 121.869 214.55 127.781 213.817 C 133.027 213.191 133.934 213.086 143.516 211.895 C 216.126 203.025 289.536 203.045 362.12 211.957 C 371.357 213.099 372.223 213.211 377.272 213.812 C 383.188 214.544 388.56 210.339 389.292 204.423 C 390.005 198.507 385.794 193.11 379.883 192.402 Z" style="fill: rgb(94, 42, 149);"/>
  <path d="M 76.146 275.897 L 60.291 378.757 C 58.873 387.96 61.936 397.288 68.518 403.87 C 75.096 410.448 84.424 413.511 93.631 412.097 L 196.481 396.261 C 277.594 422.089 368.681 389.05 412.971 312.331 C 464.088 223.8 433.709 110.431 345.194 59.331 C 256.663 8.229 143.314 38.593 92.194 127.128 C 65.104 174.062 60.905 227.978 76.147 275.898 L 76.146 275.897 Z M 95.886 276.51 C 96.097 275.147 95.992 273.745 95.554 272.432 C 81.046 228.577 84.601 178.983 109.484 135.882 C 155.773 55.714 258.414 28.222 338.574 74.491 C 418.722 120.78 446.234 223.421 399.945 303.581 C 359.504 373.632 275.995 403.472 202.085 378.987 C 200.773 378.55 199.374 378.429 197.992 378.636 L 93.102 394.788 C 89.41 395.366 85.664 394.139 83.024 391.498 C 80.383 388.858 79.156 385.112 79.734 381.42 L 95.886 276.51 Z" style="fill: rgb(94, 42, 149); paint-order: stroke markers;"/>
</svg>