<?xml version="1.0" encoding="UTF-8"?>
<svg width="700pt" height="700pt" version="1.1" viewBox="0 0 700 700" xmlns="http://www.w3.org/2000/svg">
 <g fill-rule="evenodd">
  <path d="m346.41 224.77c-22.383 0-40.566 18.184-40.566 40.582 0 22.398 18.184 40.582 40.566 40.582 22.398 0 40.582-18.184 40.582-40.582 0-22.398-18.184-40.582-40.582-40.582zm0 17.5c12.738 0 23.082 10.344 23.082 23.082 0 12.738-10.344 23.082-23.082 23.082-12.723 0-23.066-10.344-23.066-23.082 0-12.738 10.344-23.082 23.066-23.082z"/>
  <path d="m231.84 224.77c-22.398 0-40.582 18.184-40.582 40.582 0 22.398 18.184 40.582 40.582 40.582 22.383 0 40.566-18.184 40.566-40.582 0-22.398-18.184-40.582-40.566-40.582zm0 17.5c12.723 0 23.066 10.344 23.066 23.082 0 12.738-10.344 23.082-23.066 23.082-12.738 0-23.082-10.344-23.082-23.082 0-12.738 10.344-23.082 23.082-23.082z"/>
  <path d="m368.67 212.82 0.28125 0.015625c0.45312 0.035157 0.66406 0.035157 0.66406 0.035157 2.7109 0 5.2656-1.2617 6.9297-3.4141 1.6641-2.1367 2.2227-4.9336 1.5391-7.5586l-16.152-61.969c-2.1172-8.1016-7.4531-14.98-14.77-19.059-7.3164-4.0781-15.977-4.9883-23.992-2.5391l-34.039 10.5-34.055-10.5c-8.0156-2.4492-16.676-1.5391-23.992 2.5391-7.3164 4.0781-12.652 10.953-14.754 19.059-6.5117 24.938-16.172 61.969-16.172 61.969-0.68359 2.625-0.12109 5.4258 1.5391 7.5586 1.6641 2.1523 4.2188 3.4141 6.9297 3.4141 0 0 0.31641 0.015624 0.94531-0.050782 52.867-5.7383 106.23-5.7383 159.09 0zm-10.691-18.656c-45.797-4.1992-91.91-4.1992-137.71 0l12.984-49.805c0.91016-3.4844 3.2031-6.457 6.3516-8.207s6.8789-2.1367 10.309-1.0859c0.015625 0 36.629 11.289 36.629 11.289 1.6797 0.50781 3.4844 0.50781 5.1641 0 0 0 20.004-6.1602 36.629-11.289 3.4297-1.0508 7.1562-0.66406 10.309 1.0859 3.1484 1.75 5.4414 4.7266 6.3516 8.207l12.984 49.805z"/>
  <path d="m316.71 256.43c-18.148-4.5312-37.137-4.3906-55.211 0.4375-0.070312 0.015625-0.070312 0.015625-0.10547 0.035157-4.6562 1.2422-7.4375 6.0391-6.1953 10.711 1.2617 4.6562 6.0547 7.4375 10.711 6.1953 0.035157-0.015626 0.035157-0.015626 0.10547-0.035157 15.207-4.0586 31.184-4.1836 46.445-0.36719 4.6914 1.1719 9.4492-1.6797 10.621-6.3711 1.1719-4.6719-1.6797-9.4336-6.3711-10.605z"/>
  <path d="m392.14 198.03c-4.0781-0.50781-4.7773-0.59375-12.266-1.5039-60.27-7.4023-121.22-7.4219-181.49-0.050782-7.7891 0.94531-8.5039 1.0312-12.773 1.5586-4.7969 0.57812-8.207 4.9531-7.6133 9.7461 0.57812 4.7969 4.9531 8.207 9.7461 7.6133 4.2539-0.50781 4.9883-0.59375 12.758-1.5586 58.871-7.1914 118.39-7.1758 177.24 0.050781 7.4883 0.92578 8.1914 1.0156 12.285 1.5039 4.7969 0.59375 9.1523-2.8164 9.7461-7.6133 0.57812-4.7969-2.8359-9.1719-7.6289-9.7461z"/>
  <path d="m112.44 267.63-15.855 102.86c-1.418 9.2031 1.6445 18.531 8.2266 25.113 6.5781 6.5781 15.906 9.6406 25.113 8.2266l102.85-15.836c81.113 25.828 172.2-7.2109 216.49-83.93 51.117-88.531 20.738-201.9-67.777-253-88.531-51.102-201.88-20.738-253 67.797-27.09 46.934-31.289 100.85-16.047 148.77zm17.605 0.61328c0.21094-1.3633 0.10547-2.7656-0.33203-4.0781-14.508-43.855-10.953-93.449 13.93-136.55 46.289-80.168 148.93-107.66 229.09-61.391 80.148 46.289 107.66 148.93 61.371 229.09-40.441 70.051-123.95 99.891-197.86 75.406-1.3125-0.4375-2.7109-0.55859-4.0938-0.35156l-104.89 16.152c-3.6914 0.57812-7.4375-0.64844-10.078-3.2891s-3.8672-6.3867-3.2891-10.078l16.152-104.91z"/>
  <path d="m463.23 163.34c-2.9766-0.875-6.1953-0.085938-8.4688 2.0469-2.2578 2.1367-3.2031 5.3008-2.5039 8.3281 9.2227 39.934 3.9531 83.316-18.148 121.59-39.461 68.355-119.91 98.422-192.46 77.086-2.9766-0.875-6.2109-0.10547-8.4688 2.0312s-3.2188 5.3008-2.5195 8.3281c4.0234 17.449 10.676 34.578 20.09 50.871 44.293 76.754 135.38 109.78 216.53 83.93-0.035156 0 102.81 15.855 102.81 15.855 9.2031 1.418 18.531-1.6445 25.113-8.2266 6.5781-6.5781 9.6406-15.906 8.2266-25.113l-15.855-102.86c15.242-47.914 11.059-101.83-16.047-148.79-24.781-42.891-64.172-72.152-108.29-85.086zm8.9062 21.508c34.281 13.352 64.418 38.027 84.227 72.328 24.887 43.102 28.438 92.715 13.93 136.57-0.4375 1.3125-0.54297 2.7109-0.33203 4.0781l16.152 104.91c0.57812 3.6914-0.64844 7.4375-3.2891 10.078-2.6406 2.6406-6.3867 3.8672-10.078 3.2891l-104.89-16.152c-1.3828-0.21094-2.7812-0.085937-4.0938 0.33203-73.902 24.5-157.41-5.3359-197.86-75.406-5.9844-10.344-10.727-21.051-14.281-31.988 76.004 15.594 156.77-18.008 197.64-88.828 21.648-37.484 28.684-79.434 22.871-119.19z"/>
 </g>
</svg>
